<svg width="388" height="71" viewBox="0 0 388 71" fill="none" xmlns="http://www.w3.org/2000/svg">
<g clip-path="url(#clip0_175_2)">
<path d="M8.79028 12.1991L35.1738 4.43298L61.532 12.1991V28.1256C61.532 44.8655 50.9107 59.7268 35.165 65.0185C19.415 59.727 8.79028 44.8623 8.79028 28.1183V12.1991Z" fill="#3C3795" stroke="#FFCC00" stroke-width="10" stroke-linejoin="round"/>
</g>
<g clip-path="url(#clip1_175_2)">
<path d="M8.79028 12.1991L35.1738 4.43298L61.532 12.1991V28.1256C61.532 44.8655 50.9107 59.7268 35.165 65.0185C19.415 59.727 8.79028 44.8623 8.79028 28.1183V12.1991Z" fill="#3C3795" stroke="#FFCC00" stroke-width="10" stroke-linejoin="round"/>
</g>
<path d="M100.15 51V16H107.4V30.1H123.5V16H130.75V51H123.5V36.65H107.4V51H100.15ZM144.475 51.45C142.608 51.45 140.958 51.1167 139.525 50.45C138.091 49.75 136.975 48.8 136.175 47.6C135.375 46.4 134.975 45.0167 134.975 43.45C134.975 40.95 135.908 39.0167 137.775 37.65C139.675 36.25 142.275 35.55 145.575 35.55C147.841 35.55 149.975 35.9 151.975 36.6V34.7C151.975 33.2 151.508 32.0667 150.575 31.3C149.641 30.5333 148.275 30.15 146.475 30.15C145.375 30.15 144.191 30.3333 142.925 30.7C141.658 31.0333 140.191 31.5667 138.525 32.3L136.025 27.25C138.091 26.3167 140.058 25.6167 141.925 25.15C143.825 24.6833 145.725 24.45 147.625 24.45C151.125 24.45 153.841 25.3 155.775 27C157.741 28.6667 158.725 31.0333 158.725 34.1V51H151.975V49.15C150.908 49.95 149.758 50.5333 148.525 50.9C147.291 51.2667 145.941 51.45 144.475 51.45ZM141.475 43.3C141.475 44.3 141.908 45.1 142.775 45.7C143.641 46.2667 144.791 46.55 146.225 46.55C147.358 46.55 148.408 46.4167 149.375 46.15C150.341 45.85 151.208 45.4167 151.975 44.85V41.05C151.141 40.7167 150.275 40.4667 149.375 40.3C148.475 40.1333 147.508 40.05 146.475 40.05C144.908 40.05 143.675 40.35 142.775 40.95C141.908 41.5167 141.475 42.3 141.475 43.3ZM163.909 51V16L170.759 14.85V51H163.909ZM176.116 51V16L182.966 14.85V51H176.116ZM211.082 51.5C208.482 51.5 206.132 50.9 204.032 49.7C201.932 48.5 200.265 46.8833 199.032 44.85C197.798 42.8167 197.182 40.5333 197.182 38C197.182 35.4667 197.782 33.1833 198.982 31.15C200.215 29.0833 201.882 27.45 203.982 26.25C206.115 25.05 208.482 24.45 211.082 24.45C213.682 24.45 216.032 25.05 218.132 26.25C220.265 27.45 221.932 29.0833 223.132 31.15C224.365 33.1833 224.982 35.4667 224.982 38C224.982 40.5333 224.365 42.8167 223.132 44.85C221.932 46.8833 220.282 48.5 218.182 49.7C216.082 50.9 213.715 51.5 211.082 51.5ZM211.082 45.55C212.448 45.55 213.665 45.2167 214.732 44.55C215.832 43.8833 216.698 42.9833 217.332 41.85C217.998 40.6833 218.332 39.4 218.332 38C218.332 36.5667 217.998 35.2833 217.332 34.15C216.698 33.0167 215.832 32.1167 214.732 31.45C213.665 30.75 212.448 30.4 211.082 30.4C209.748 30.4 208.532 30.75 207.432 31.45C206.332 32.1167 205.465 33.0167 204.832 34.15C204.198 35.2833 203.882 36.5667 203.882 38C203.882 39.4 204.198 40.6833 204.832 41.85C205.465 42.9833 206.332 43.8833 207.432 44.55C208.532 45.2167 209.748 45.55 211.082 45.55ZM232.167 51V30.65H226.367V24.95H232.167V22.45C232.167 19.5167 233.017 17.2833 234.717 15.75C236.417 14.1833 238.867 13.4 242.067 13.4C242.767 13.4 243.483 13.4333 244.217 13.5C244.95 13.5667 245.583 13.6833 246.117 13.85V19.6C245.483 19.4667 244.933 19.3667 244.467 19.3C244 19.2333 243.483 19.2 242.917 19.2C241.617 19.2 240.633 19.4833 239.967 20.05C239.333 20.5833 239.017 21.4333 239.017 22.6V24.95H246.117V30.65H239.017V51H232.167ZM260.209 51V16H287.259V22.3H267.459V30.55H280.609V36.65H267.459V51H260.209ZM296.574 51.45C294.708 51.45 293.058 51.1167 291.624 50.45C290.191 49.75 289.074 48.8 288.274 47.6C287.474 46.4 287.074 45.0167 287.074 43.45C287.074 40.95 288.008 39.0167 289.874 37.65C291.774 36.25 294.374 35.55 297.674 35.55C299.941 35.55 302.074 35.9 304.074 36.6V34.7C304.074 33.2 303.608 32.0667 302.674 31.3C301.741 30.5333 300.374 30.15 298.574 30.15C297.474 30.15 296.291 30.3333 295.024 30.7C293.758 31.0333 292.291 31.5667 290.624 32.3L288.124 27.25C290.191 26.3167 292.158 25.6167 294.024 25.15C295.924 24.6833 297.824 24.45 299.724 24.45C303.224 24.45 305.941 25.3 307.874 27C309.841 28.6667 310.824 31.0333 310.824 34.1V51H304.074V49.15C303.008 49.95 301.858 50.5333 300.624 50.9C299.391 51.2667 298.041 51.45 296.574 51.45ZM293.574 43.3C293.574 44.3 294.008 45.1 294.874 45.7C295.741 46.2667 296.891 46.55 298.324 46.55C299.458 46.55 300.508 46.4167 301.474 46.15C302.441 45.85 303.308 45.4167 304.074 44.85V41.05C303.241 40.7167 302.374 40.4667 301.474 40.3C300.574 40.1333 299.608 40.05 298.574 40.05C297.008 40.05 295.774 40.35 294.874 40.95C294.008 41.5167 293.574 42.3 293.574 43.3ZM316.009 51V24.95H322.859V26.95C324.725 25.2833 326.992 24.45 329.659 24.45C331.359 24.45 332.875 24.8 334.209 25.5C335.542 26.1667 336.642 27.1167 337.509 28.35C338.575 27.0833 339.825 26.1167 341.259 25.45C342.725 24.7833 344.342 24.45 346.109 24.45C348.075 24.45 349.792 24.9 351.259 25.8C352.759 26.6667 353.925 27.8833 354.759 29.45C355.625 30.9833 356.059 32.7833 356.059 34.85V51H349.259V35.85C349.259 34.15 348.809 32.8167 347.909 31.85C347.009 30.85 345.809 30.35 344.309 30.35C343.275 30.35 342.325 30.5667 341.459 31C340.625 31.4333 339.909 32.0833 339.309 32.95C339.342 33.25 339.375 33.55 339.409 33.85C339.442 34.15 339.459 34.4833 339.459 34.85V51H332.609V35.85C332.609 34.15 332.159 32.8167 331.259 31.85C330.392 30.85 329.209 30.35 327.709 30.35C326.675 30.35 325.742 30.55 324.909 30.95C324.109 31.35 323.425 31.95 322.859 32.75V51H316.009ZM374.022 51.5C371.422 51.5 369.056 50.9 366.922 49.7C364.822 48.5 363.156 46.8833 361.922 44.85C360.689 42.8167 360.072 40.5333 360.072 38C360.072 35.4667 360.656 33.1833 361.822 31.15C363.022 29.1167 364.639 27.5 366.672 26.3C368.706 25.1 370.972 24.5 373.472 24.5C375.972 24.5 378.189 25.1167 380.122 26.35C382.056 27.5833 383.572 29.25 384.672 31.35C385.806 33.45 386.372 35.8333 386.372 38.5V40.3H367.072C367.372 41.3333 367.856 42.2667 368.522 43.1C369.222 43.9333 370.072 44.5833 371.072 45.05C372.106 45.5167 373.206 45.75 374.372 45.75C375.539 45.75 376.606 45.5667 377.572 45.2C378.572 44.8333 379.422 44.3167 380.122 43.65L384.622 47.75C383.022 49.05 381.372 50 379.672 50.6C378.006 51.2 376.122 51.5 374.022 51.5ZM366.972 35.4H379.622C379.389 34.3667 378.956 33.4667 378.322 32.7C377.722 31.9 376.989 31.2833 376.122 30.85C375.289 30.3833 374.356 30.15 373.322 30.15C372.256 30.15 371.289 30.3667 370.422 30.8C369.556 31.2333 368.822 31.85 368.222 32.65C367.656 33.4167 367.239 34.3333 366.972 35.4Z" fill="black"/>
<defs>
<clipPath id="clip0_175_2">
<rect width="70.3223" height="70.9286" fill="white"/>
</clipPath>
<clipPath id="clip1_175_2">
<rect width="70.3223" height="70.9286" fill="white"/>
</clipPath>
</defs>
</svg>
