<svg width="546" height="117" viewBox="0 0 546 117" fill="none" xmlns="http://www.w3.org/2000/svg">
<path d="M161.499 90.0789C156.956 90.0789 152.705 89.2921 148.744 87.7186C144.784 86.0867 141.318 83.8429 138.348 80.9872C135.436 78.1315 133.135 74.8095 131.446 71.0213C129.815 67.1748 129 63.037 129 58.6077C129 54.1201 129.815 49.9822 131.446 46.194C133.135 42.3475 135.465 38.9964 138.435 36.1407C141.406 33.285 144.842 31.0704 148.744 29.4968C152.705 27.865 156.956 27.049 161.499 27.049C164.877 27.049 168.139 27.5153 171.284 28.4478C174.429 29.3802 177.341 30.6915 180.02 32.3817C182.758 34.0718 185.087 36.1116 187.009 38.5011L178.448 46.9808C176.235 44.2416 173.672 42.1727 170.76 40.774C167.906 39.3753 164.819 38.6759 161.499 38.6759C158.762 38.6759 156.199 39.2004 153.811 40.2495C151.423 41.2402 149.356 42.6389 147.608 44.4456C145.861 46.194 144.492 48.2921 143.502 50.7399C142.512 53.1294 142.017 55.752 142.017 58.6077C142.017 61.4051 142.512 64.0277 143.502 66.4755C144.492 68.865 145.89 70.963 147.696 72.7697C149.501 74.5181 151.598 75.8877 153.986 76.8785C156.432 77.8692 159.082 78.3646 161.936 78.3646C165.139 78.3646 168.139 77.6944 170.934 76.3539C173.73 75.0135 176.205 73.0903 178.36 70.5842L186.66 78.8017C184.738 81.1329 182.437 83.1436 179.758 84.8337C177.079 86.5238 174.167 87.8351 171.022 88.7676C167.935 89.6418 164.761 90.0789 161.499 90.0789Z" fill="black"/>
<path d="M197.735 108C196.687 108 195.668 107.942 194.678 107.825C193.746 107.767 192.959 107.679 192.319 107.563V97.2473C193.484 97.4805 194.881 97.597 196.512 97.597C200.88 97.597 203.909 95.5281 205.598 91.3902L206.297 89.6418L188.562 43.6588H201.754L213.111 74.693L225.954 43.6588H238.883L217.916 92.8763C216.344 96.548 214.625 99.4911 212.762 101.706C210.898 103.92 208.743 105.523 206.297 106.514C203.909 107.505 201.055 108 197.735 108Z" fill="black"/>
<path d="M243.701 89.2047V28.0107L255.67 26V47.3305C259.281 44.4748 263.533 43.0469 268.425 43.0469C272.735 43.0469 276.637 44.096 280.132 46.194C283.626 48.2921 286.393 51.1187 288.431 54.6738C290.528 58.1706 291.577 62.1045 291.577 66.4755C291.577 70.8465 290.528 74.8095 288.431 78.3646C286.335 81.8614 283.51 84.6589 279.957 86.7569C276.404 88.7967 272.444 89.8166 268.076 89.8166C265.804 89.8166 263.591 89.4961 261.436 88.855C259.281 88.2139 257.301 87.2814 255.495 86.0576V89.2047H243.701ZM266.503 79.6759C269.008 79.6759 271.25 79.0931 273.23 77.9275C275.269 76.7619 276.87 75.1883 278.035 73.2068C279.2 71.2253 279.782 68.9815 279.782 66.4755C279.782 63.9694 279.2 61.7257 278.035 59.7441C276.87 57.7043 275.269 56.1308 273.23 55.0235C271.25 53.8579 269.008 53.2751 266.503 53.2751C264.29 53.2751 262.252 53.6539 260.388 54.4115C258.582 55.1109 257.01 56.1891 255.67 57.6461V75.3923C256.951 76.7328 258.524 77.7818 260.388 78.5394C262.31 79.2971 264.348 79.6759 266.503 79.6759Z" fill="black"/>
<path d="M321.093 90.0789C316.55 90.0789 312.415 89.0299 308.687 86.9318C305.018 84.8337 302.106 82.0071 299.951 78.452C297.796 74.8969 296.719 70.9048 296.719 66.4755C296.719 62.0462 297.738 58.054 299.776 54.4989C301.873 50.9439 304.698 48.1173 308.251 46.0192C311.803 43.9211 315.764 42.8721 320.132 42.8721C324.5 42.8721 328.373 43.9502 331.751 46.1066C335.129 48.263 337.78 51.177 339.702 54.8486C341.682 58.5203 342.672 62.6873 342.672 67.3497V70.4968H308.95C309.474 72.3035 310.318 73.9353 311.483 75.3923C312.706 76.8493 314.191 77.9858 315.939 78.8017C317.744 79.6176 319.666 80.0256 321.705 80.0256C323.743 80.0256 325.607 79.705 327.296 79.064C329.043 78.4229 330.528 77.5195 331.751 76.3539L339.614 83.5224C336.819 85.7953 333.936 87.4563 330.965 88.5053C328.053 89.5544 324.762 90.0789 321.093 90.0789ZM308.775 61.9296H330.878C330.47 60.123 329.713 58.5494 328.606 57.209C327.558 55.8102 326.277 54.7321 324.762 53.9744C323.306 53.1585 321.676 52.7505 319.87 52.7505C318.006 52.7505 316.317 53.1294 314.803 53.887C313.289 54.6446 312.007 55.7228 310.959 57.1215C309.969 58.462 309.241 60.0647 308.775 61.9296Z" fill="black"/>
<path d="M350.005 89.2047V43.6588H361.974V48.7292C363.43 46.7477 365.177 45.2324 367.216 44.1834C369.254 43.1343 371.555 42.6098 374.117 42.6098C376.33 42.6681 377.99 43.0178 379.097 43.6588V54.1493C378.223 53.7413 377.262 53.4499 376.214 53.2751C375.166 53.0419 374.088 52.9254 372.982 52.9254C370.652 52.9254 368.526 53.5082 366.604 54.6738C364.682 55.8394 363.139 57.5004 361.974 59.6567V89.2047H350.005Z" fill="black"/>
<path d="M396.762 89.2047L383.221 28.0107H396.238L404.537 69.4478L416.419 28.0107H428.388L440.269 69.3603L448.569 28.0107H461.149L447.695 89.2047H434.328L422.272 46.5437L410.041 89.2047H396.762Z" fill="black"/>
<path d="M478.745 89.9915C475.484 89.9915 472.601 89.4087 470.096 88.2431C467.592 87.0192 465.641 85.3582 464.243 83.2601C462.845 81.162 462.146 78.7434 462.146 76.0043C462.146 71.6333 463.777 68.253 467.038 65.8635C470.358 63.4158 474.901 62.1919 480.667 62.1919C484.628 62.1919 488.355 62.8038 491.85 64.0277V60.7058C491.85 58.0832 491.034 56.1016 489.404 54.7612C487.773 53.4208 485.385 52.7505 482.24 52.7505C480.318 52.7505 478.25 53.0711 476.037 53.7122C473.824 54.295 471.261 55.2274 468.349 56.5096L463.981 47.6802C467.592 46.0483 471.028 44.8244 474.29 44.0085C477.609 43.1926 480.929 42.7847 484.249 42.7847C490.365 42.7847 495.111 44.2708 498.489 47.2431C501.926 50.1571 503.644 54.295 503.644 59.6567V89.2047H491.85V85.9701C489.986 87.3689 487.977 88.3888 485.822 89.0299C483.667 89.6709 481.308 89.9915 478.745 89.9915ZM473.503 75.742C473.503 77.4904 474.261 78.8891 475.775 79.9382C477.289 80.9289 479.298 81.4243 481.803 81.4243C483.783 81.4243 485.618 81.1912 487.307 80.7249C488.996 80.2004 490.51 79.4428 491.85 78.452V71.8081C490.394 71.2253 488.879 70.7882 487.307 70.4968C485.734 70.2054 484.045 70.0597 482.24 70.0597C479.502 70.0597 477.347 70.5842 475.775 71.6333C474.261 72.624 473.503 73.9936 473.503 75.742Z" fill="black"/>
<path d="M512.702 89.2047V28.0107L524.671 26V89.2047H512.702Z" fill="black"/>
<path d="M534.031 89.2047V28.0107L546 26V89.2047H534.031Z" fill="black"/>
<path d="M14.5 20.1231L58.0208 7.3125L101.5 20.1231V46.3946C101.5 74.0079 83.9797 98.5223 58.0063 107.251C32.0259 98.5225 14.5 74.0025 14.5 46.3825V20.1231Z" fill="#FFCC00" stroke="#000AFF" stroke-width="4" stroke-linejoin="round"/>
</svg>
