<svg width="255" height="71" viewBox="0 0 255 71" fill="none" xmlns="http://www.w3.org/2000/svg">
<g clip-path="url(#clip0_1_575)">
<path d="M8.79053 12.1991L35.174 4.43298L61.5323 12.1991V28.1256C61.5323 44.8655 50.911 59.7268 35.1652 65.0185C19.4152 59.727 8.79053 44.8623 8.79053 28.1183V12.1991Z" fill="#3C3795" stroke="#FFCC00" stroke-width="10" stroke-linejoin="round"/>
</g>
<g clip-path="url(#clip1_1_575)">
<path d="M8.79053 12.1991L35.174 4.43298L61.5323 12.1991V28.1256C61.5323 44.8655 50.911 59.7268 35.1652 65.0185C19.4152 59.727 8.79053 44.8623 8.79053 28.1183V12.1991Z" fill="#0000FF" stroke="#FFCC00" stroke-width="10" stroke-linejoin="round"/>
</g>
<path d="M77 63.3555V37.1242H90.6337C92.4204 37.1242 93.9871 37.4739 95.3336 38.1734C96.706 38.8729 97.7807 39.8473 98.5575 41.0964C99.3344 42.3205 99.7228 43.7445 99.7228 45.3683C99.7228 46.9172 99.3344 48.3037 98.5575 49.5278C97.7807 50.752 96.706 51.7138 95.3336 52.4133C93.9612 53.1128 92.3945 53.4625 90.6337 53.4625H82.6321V63.3555H77ZM82.6321 48.9657H90.0122C91.2293 48.9657 92.2003 48.641 92.9254 47.9914C93.6763 47.3419 94.0518 46.48 94.0518 45.4058C94.0518 44.3066 93.6763 43.4322 92.9254 42.7827C92.2003 42.1331 91.2293 41.8083 90.0122 41.8083H82.6321V48.9657Z" fill="#0000FF"/>
<path d="M103.051 63.3555V43.8319H108.372V46.0054C109.02 45.156 109.797 44.5064 110.703 44.0567C111.609 43.6071 112.632 43.3822 113.772 43.3822C114.756 43.4072 115.494 43.5571 115.986 43.8319V48.3287C115.597 48.1538 115.17 48.0289 114.704 47.954C114.238 47.854 113.759 47.8041 113.267 47.8041C112.231 47.8041 111.286 48.0539 110.431 48.5535C109.577 49.0532 108.89 49.7652 108.372 50.6895V63.3555H103.051Z" fill="#0000FF"/>
<path d="M128.015 63.7302C125.995 63.7302 124.157 63.2805 122.499 62.3812C120.868 61.4818 119.573 60.2702 118.615 58.7463C117.657 57.2223 117.178 55.5111 117.178 53.6124C117.178 51.7138 117.631 50.0025 118.537 48.4786C119.47 46.9547 120.725 45.743 122.305 44.8437C123.885 43.9443 125.646 43.4946 127.588 43.4946C129.53 43.4946 131.252 43.9568 132.754 44.8812C134.256 45.8055 135.434 47.0546 136.288 48.6285C137.169 50.2024 137.609 51.9886 137.609 53.9872V55.3362H122.616C122.849 56.1106 123.224 56.8101 123.742 57.4347C124.286 58.0592 124.946 58.5464 125.723 58.8961C126.526 59.2459 127.38 59.4208 128.287 59.4208C129.193 59.4208 130.022 59.2834 130.773 59.0086C131.55 58.7338 132.21 58.3465 132.754 57.8469L136.249 60.9197C135.007 61.894 133.725 62.606 132.404 63.0557C131.109 63.5054 129.646 63.7302 128.015 63.7302ZM122.538 51.6638H132.365C132.184 50.8894 131.847 50.2148 131.355 49.6403C130.889 49.0407 130.32 48.5785 129.646 48.2537C128.999 47.904 128.274 47.7291 127.471 47.7291C126.642 47.7291 125.892 47.8915 125.218 48.2163C124.545 48.541 123.975 49.0032 123.509 49.6028C123.069 50.1774 122.745 50.8644 122.538 51.6638Z" fill="#0000FF"/>
<path d="M140.63 54.849V50.5021H155.235V54.849H140.63Z" fill="#0000FF"/>
<path d="M165.373 63.6927C163.923 63.6927 162.641 63.4429 161.527 62.9433C160.414 62.4186 159.546 61.7066 158.925 60.8073C158.303 59.9079 157.993 58.8712 157.993 57.697C157.993 55.8233 158.718 54.3744 160.168 53.3501C161.644 52.3009 163.664 51.7762 166.227 51.7762C167.988 51.7762 169.645 52.0385 171.199 52.5632V51.1392C171.199 50.015 170.837 49.1656 170.112 48.591C169.386 48.0164 168.325 47.7291 166.926 47.7291C166.072 47.7291 165.153 47.8665 164.169 48.1413C163.185 48.3911 162.045 48.7909 160.751 49.3405L158.808 45.5557C160.414 44.8562 161.942 44.3315 163.392 43.9818C164.868 43.632 166.344 43.4572 167.82 43.4572C170.539 43.4572 172.649 44.0942 174.151 45.3683C175.679 46.6174 176.443 48.3911 176.443 50.6895V63.3555H171.199V61.969C170.37 62.5685 169.477 63.0057 168.519 63.2805C167.561 63.5553 166.512 63.6927 165.373 63.6927ZM163.042 57.5846C163.042 58.334 163.379 58.9336 164.052 59.3833C164.725 59.808 165.619 60.0203 166.732 60.0203C167.613 60.0203 168.428 59.9204 169.179 59.7206C169.93 59.4957 170.604 59.1709 171.199 58.7463V55.8983C170.552 55.6485 169.878 55.4611 169.179 55.3362C168.48 55.2113 167.729 55.1488 166.926 55.1488C165.709 55.1488 164.751 55.3737 164.052 55.8233C163.379 56.248 163.042 56.8351 163.042 57.5846Z" fill="#0000FF"/>
<path d="M180.47 63.3555V37.1242L185.792 36.2623V63.3555H180.47Z" fill="#0000FF"/>
<path d="M189.953 71V43.8319H195.197V45.4433C196.854 44.1941 198.771 43.5696 200.946 43.5696C202.862 43.5696 204.597 44.0193 206.151 44.9186C207.704 45.818 208.934 47.0296 209.841 48.5535C210.773 50.0525 211.239 51.7388 211.239 53.6124C211.239 55.4861 210.773 57.1849 209.841 58.7088C208.908 60.2077 207.652 61.4069 206.073 62.3062C204.493 63.1806 202.732 63.6178 200.79 63.6178C199.78 63.6178 198.809 63.4929 197.877 63.243C196.945 62.9682 196.077 62.581 195.275 62.0814V71H189.953ZM200.091 59.2709C201.205 59.2709 202.202 59.0211 203.082 58.5214C203.988 58.0218 204.7 57.3473 205.218 56.4979C205.736 55.6485 205.995 54.6867 205.995 53.6124C205.995 52.5382 205.736 51.5764 205.218 50.727C204.7 49.8526 203.988 49.1781 203.082 48.7034C202.202 48.2038 201.205 47.954 200.091 47.954C199.107 47.954 198.201 48.1163 197.372 48.4411C196.569 48.7409 195.87 49.2031 195.275 49.8276V57.4347C195.844 58.0093 196.544 58.459 197.372 58.7837C198.227 59.1085 199.133 59.2709 200.091 59.2709Z" fill="#0000FF"/>
<path d="M214.457 63.3555V37.1242L219.779 36V45.4433C221.307 44.1192 223.197 43.4572 225.45 43.4572C227.029 43.4572 228.415 43.7944 229.606 44.469C230.823 45.1185 231.768 46.0303 232.441 47.2045C233.115 48.3537 233.451 49.7027 233.451 51.2516V63.3555H228.13V52.0011C228.13 50.727 227.754 49.7277 227.003 49.0032C226.252 48.2537 225.23 47.879 223.935 47.879C223.029 47.879 222.226 48.0539 221.527 48.4036C220.828 48.7284 220.245 49.2031 219.779 49.8276V63.3555H214.457Z" fill="#0000FF"/>
<path d="M243.93 63.6927C242.48 63.6927 241.198 63.4429 240.085 62.9433C238.971 62.4186 238.104 61.7066 237.482 60.8073C236.861 59.9079 236.55 58.8712 236.55 57.697C236.55 55.8233 237.275 54.3744 238.725 53.3501C240.201 52.3009 242.221 51.7762 244.784 51.7762C246.545 51.7762 248.203 52.0385 249.756 52.5632V51.1392C249.756 50.015 249.394 49.1656 248.669 48.591C247.944 48.0164 246.882 47.7291 245.484 47.7291C244.629 47.7291 243.71 47.8665 242.726 48.1413C241.742 48.3911 240.602 48.7909 239.308 49.3405L237.366 45.5557C238.971 44.8562 240.499 44.3315 241.949 43.9818C243.425 43.632 244.901 43.4572 246.377 43.4572C249.096 43.4572 251.206 44.0942 252.708 45.3683C254.236 46.6174 255 48.3911 255 50.6895V63.3555H249.756V61.969C248.928 62.5685 248.034 63.0057 247.076 63.2805C246.118 63.5553 245.069 63.6927 243.93 63.6927ZM241.599 57.5846C241.599 58.334 241.936 58.9336 242.609 59.3833C243.283 59.808 244.176 60.0203 245.289 60.0203C246.17 60.0203 246.986 59.9204 247.736 59.7206C248.487 59.4957 249.161 59.1709 249.756 58.7463V55.8983C249.109 55.6485 248.436 55.4611 247.736 55.3362C247.037 55.2113 246.286 55.1488 245.484 55.1488C244.267 55.1488 243.308 55.3737 242.609 55.8233C241.936 56.248 241.599 56.8351 241.599 57.5846Z" fill="#0000FF"/>
<path d="M90.8688 28.1322C88.9301 28.1322 87.1158 27.7868 85.4257 27.0959C83.7356 26.3795 82.2567 25.3945 80.9891 24.1407C79.7464 22.887 78.7647 21.4286 78.0439 19.7655C77.348 18.0768 77 16.2601 77 14.3156C77 12.3454 77.348 10.5288 78.0439 8.86567C78.7647 7.17697 79.7588 5.70576 81.0264 4.45203C82.294 3.19829 83.7604 2.22601 85.4257 1.53518C87.1158 0.818764 88.9301 0.460555 90.8688 0.460555C92.3103 0.460555 93.7022 0.665246 95.0443 1.07463C96.3865 1.48401 97.6292 2.0597 98.7725 2.80171C99.9406 3.54371 100.935 4.43923 101.755 5.48827L98.1014 9.21109C97.157 8.00853 96.0634 7.10021 94.8206 6.48614C93.6028 5.87207 92.2855 5.56503 90.8688 5.56503C89.7006 5.56503 88.607 5.79531 87.588 6.25587C86.569 6.69083 85.6866 7.3049 84.941 8.09808C84.1954 8.86567 83.6113 9.78678 83.1888 10.8614C82.7662 11.9104 82.555 13.0618 82.555 14.3156C82.555 15.5437 82.7662 16.6951 83.1888 17.7697C83.6113 18.8188 84.2078 19.7399 84.9783 20.5331C85.7488 21.3006 86.6435 21.9019 87.6626 22.3369C88.7064 22.7719 89.8373 22.9893 91.0552 22.9893C92.4222 22.9893 93.7022 22.6951 94.8952 22.1066C96.0882 21.5181 97.1445 20.6738 98.0641 19.5736L101.606 23.1812C100.786 24.2047 99.8039 25.0874 98.6606 25.8294C97.5173 26.5714 96.2746 27.1471 94.9325 27.5565C93.6152 27.9403 92.2606 28.1322 90.8688 28.1322Z" fill="black"/>
<path d="M106.332 36C105.885 36 105.45 35.9744 105.027 35.9232C104.63 35.8977 104.294 35.8593 104.021 35.8081V31.2793C104.518 31.3817 105.114 31.4328 105.81 31.4328C107.674 31.4328 108.967 30.5245 109.688 28.7079L109.986 27.9403L102.418 7.75267H108.047L112.894 21.3774L118.374 7.75267H123.892L114.944 29.3603C114.273 30.9723 113.54 32.2644 112.745 33.2367C111.949 34.209 111.03 34.9126 109.986 35.3476C108.967 35.7825 107.749 36 106.332 36Z" fill="black"/>
<path d="M125.948 27.7484V0.882729L131.055 0V9.36461C132.596 8.11088 134.411 7.48401 136.499 7.48401C138.338 7.48401 140.003 7.94456 141.494 8.86567C142.986 9.78678 144.166 11.0277 145.036 12.5885C145.931 14.1237 146.378 15.8507 146.378 17.7697C146.378 19.6887 145.931 21.4286 145.036 22.9893C144.141 24.5245 142.936 25.7527 141.42 26.6738C139.904 27.5693 138.214 28.0171 136.349 28.0171C135.38 28.0171 134.436 27.8763 133.516 27.5949C132.596 27.3134 131.751 26.9041 130.981 26.3667V27.7484H125.948ZM135.678 23.565C136.747 23.565 137.704 23.3092 138.549 22.7974C139.419 22.2857 140.103 21.5949 140.6 20.7249C141.097 19.855 141.345 18.8699 141.345 17.7697C141.345 16.6695 141.097 15.6844 140.6 14.8145C140.103 13.919 139.419 13.2281 138.549 12.742C137.704 12.2303 136.747 11.9744 135.678 11.9744C134.734 11.9744 133.864 12.1407 133.069 12.4733C132.298 12.7804 131.627 13.2537 131.055 13.8934V21.6844C131.602 22.2729 132.273 22.7335 133.069 23.0661C133.889 23.3987 134.759 23.565 135.678 23.565Z" fill="black"/>
<path d="M158.974 28.1322C157.036 28.1322 155.271 27.6716 153.68 26.7505C152.114 25.8294 150.872 24.5885 149.952 23.0277C149.032 21.467 148.573 19.7143 148.573 17.7697C148.573 15.8252 149.008 14.0725 149.877 12.5117C150.772 10.951 151.978 9.71002 153.494 8.78891C155.01 7.8678 156.7 7.40725 158.564 7.40725C160.428 7.40725 162.081 7.8806 163.523 8.82729C164.964 9.77399 166.095 11.0533 166.915 12.6652C167.76 14.2772 168.183 16.1066 168.183 18.1535V19.5352H153.792C154.016 20.3284 154.376 21.0448 154.873 21.6844C155.395 22.3241 156.029 22.823 156.775 23.1812C157.545 23.5394 158.365 23.7186 159.235 23.7186C160.105 23.7186 160.9 23.5778 161.621 23.2964C162.367 23.0149 163.001 22.6183 163.523 22.1066L166.878 25.2537C165.685 26.2516 164.455 26.9808 163.187 27.4414C161.944 27.9019 160.54 28.1322 158.974 28.1322ZM153.717 15.774H163.15C162.976 14.9808 162.653 14.29 162.18 13.7015C161.733 13.0874 161.186 12.6141 160.54 12.2815C159.919 11.9232 159.223 11.7441 158.452 11.7441C157.657 11.7441 156.936 11.9104 156.29 12.2431C155.644 12.5757 155.097 13.049 154.65 13.6631C154.227 14.2516 153.916 14.9552 153.717 15.774Z" fill="black"/>
<path d="M171.312 27.7484V7.75267H176.42V9.97868C177.041 9.10874 177.787 8.4435 178.657 7.98294C179.527 7.52239 180.508 7.29211 181.602 7.29211C182.546 7.3177 183.255 7.47122 183.727 7.75267V12.3582C183.354 12.1791 182.944 12.0512 182.497 11.9744C182.049 11.8721 181.589 11.8209 181.117 11.8209C180.123 11.8209 179.216 12.0768 178.396 12.5885C177.575 13.1002 176.917 13.8294 176.42 14.7761V27.7484H171.312Z" fill="black"/>
<path d="M190.331 27.7484L184.999 7.75267H189.846L193.052 20.6482L196.93 7.75267H201.217L205.057 20.6866L208.263 7.75267H213.035L207.667 27.7484H202.783L199.017 14.968L195.252 27.7484H190.331Z" fill="black"/>
<path d="M221.3 28.0938C219.908 28.0938 218.677 27.838 217.609 27.3262C216.54 26.7889 215.707 26.0597 215.111 25.1386C214.514 24.2175 214.216 23.1557 214.216 21.9531C214.216 20.0341 214.912 18.5501 216.304 17.5011C217.72 16.4264 219.659 15.8891 222.12 15.8891C223.81 15.8891 225.401 16.1578 226.892 16.6951V15.2367C226.892 14.0853 226.544 13.2154 225.848 12.6269C225.152 12.0384 224.133 11.7441 222.791 11.7441C221.971 11.7441 221.088 11.8849 220.144 12.1663C219.199 12.4222 218.106 12.8316 216.863 13.3945L214.999 9.51812C216.54 8.80171 218.006 8.26439 219.398 7.90618C220.815 7.54798 222.232 7.36887 223.648 7.36887C226.258 7.36887 228.284 8.02132 229.725 9.32623C231.192 10.6055 231.925 12.4222 231.925 14.7761V27.7484H226.892V26.3284C226.096 26.9424 225.239 27.3902 224.319 27.6716C223.4 27.9531 222.393 28.0938 221.3 28.0938ZM219.063 21.838C219.063 22.6055 219.386 23.2196 220.032 23.6802C220.678 24.1151 221.536 24.3326 222.604 24.3326C223.449 24.3326 224.232 24.2303 224.953 24.0256C225.674 23.7953 226.32 23.4627 226.892 23.0277V20.1109C226.27 19.855 225.624 19.6631 224.953 19.5352C224.282 19.4072 223.561 19.3433 222.791 19.3433C221.623 19.3433 220.703 19.5736 220.032 20.0341C219.386 20.4691 219.063 21.0704 219.063 21.838Z" fill="black"/>
<path d="M235.79 27.7484V0.882729L240.898 0V27.7484H235.79Z" fill="black"/>
<path d="M244.892 27.7484V0.882729L250 0V27.7484H244.892Z" fill="black"/>
<defs>
<clipPath id="clip0_1_575">
<rect width="70.3223" height="70.9286" fill="white"/>
</clipPath>
<clipPath id="clip1_1_575">
<rect width="70.3223" height="70.9286" fill="white"/>
</clipPath>
</defs>
</svg>
